PathFileType	4	(X/Y/Z)	C:\Users\WrightLab\Desktop\Jo\P3_11.trc
DataRate	CameraRate	NumFrames	NumMarkers	Units	OrigDataRate	OrigDataStartFrame	OrigNumFrames
100.00	100.00	       11	19	mm	100.00	164	       653
Frame#	Time	Headset_Front			Headset_Back			Headset_Left			Headset_Right			Left_Shoulder			Right_Shoulder			Sternum			C7			Left Elbow			Right Elbow			Left Wrist			Right Wrist			Left ASIS			Right ASIS			S2			Left Knee			Right Knee			Left Ankle			Right Ankle			
		X1	Y1	Z1	X2	Y2	Z2	X3	Y3	Z3	X4	Y4	Z4	X5	Y5	Z5	X6	Y6	Z6	X7	Y7	Z7	X8	Y8	Z8	X9	Y9	Z9	X10	Y10	Z10	X11	Y11	Z11	X12	Y12	Z12	X13	Y13	Z13	X14	Y14	Z14	X15	Y15	Z15	X16	Y16	Z16	X17	Y17	Z17	X18	Y18	Z18	X19	Y19	Z19	

164	1.630				-577.39667	1600.13989	-203.15820	-430.24216	1562.48462	-139.10356	-600.12927	1548.00122	10.22748	-383.45755	1320.92603	-203.44641	-717.02094	1346.35315	-65.90467	-495.69504	1231.17590	-3.37088	-575.28809	1381.99536	-185.04492	-326.15167	985.82935	-198.65660	-801.62274	1006.65228	-30.03864	-305.12189	816.06171	-76.92255	-750.03540	821.32849	94.77949	-424.53302	850.48773	-48.16217	-655.45807	865.85553	50.45265	-619.51758	933.99554	-197.21935	-467.94092	433.10635	-45.96895	-670.63507	436.52408	88.56828	-532.36218	105.46230	-53.65038	-775.02350	237.08813	-169.18898	
165	1.640				-573.91400	1601.28442	-194.47050	-427.11035	1563.17517	-130.46881	-596.13513	1549.06958	18.81570	-380.22287	1322.27515	-196.08691	-713.41394	1347.06982	-57.26522	-492.01205	1232.28772	2.82562	-572.19226	1382.95398	-177.26997	-322.36115	987.13348	-189.98860	-798.71906	1007.70465	-22.55688	-299.34122	818.34973	-67.96667	-746.04132	823.16956	103.92460	-423.78488	851.26007	-44.50544	-649.53546	867.64386	57.27974	-617.30280	935.50598	-189.07660	-466.62387	432.97400	-45.31598	-660.11603	439.66412	105.95423	-532.06140	106.03479	-54.13867	-767.76971	237.49686	-145.72238	
166	1.650				-570.54175	1602.21570	-186.65546	-423.69333	1564.53467	-123.41368	-593.29828	1549.68945	26.23490	-378.01968	1323.49951	-189.42949	-710.22058	1348.12683	-49.46344	-487.41943	1233.52466	10.68871	-569.87335	1384.05945	-169.82848	-317.76385	988.91437	-180.80824	-794.29193	1007.97174	-14.41422	-294.60706	821.05786	-58.83210	-741.79517	823.18475	111.52817	-418.68036	852.35339	-38.31382	-644.33917	870.31689	67.36613	-615.30737	937.00403	-180.94073	-465.37915	432.79843	-44.26487	-648.56628	443.61954	123.10888	-531.65668	106.35064	-54.20794	-759.65668	235.99426	-123.00642	
167	1.660	-449.80841	1524.63550	89.12192	-567.13654	1603.20435	-178.34648	-420.33228	1565.25928	-115.48872	-588.81799	1549.31848	34.95088	-375.44092	1324.42468	-182.58699	-706.70465	1348.59241	-41.39827	-483.76639	1234.42517	17.94990	-566.82343	1384.82678	-162.01312	-313.25049	990.17560	-173.73935	-790.53943	1008.78412	-6.63423	-288.88419	823.04437	-49.54041	-736.74561	824.27301	120.46179	-414.70432	853.41266	-32.21775	-638.06964	870.53516	73.73935	-612.83539	937.75250	-172.79631	-464.57745	432.74997	-42.88029	-637.37964	448.01947	139.61151	-531.75836	106.75700	-53.91337	-751.16785	233.12550	-99.60792	
168	1.670	-446.76312	1524.60889	97.18011	-563.58765	1604.39050	-170.57784	-416.87112	1565.85681	-107.71861	-585.65826	1549.75269	43.06570	-372.51828	1325.41968	-176.40150	-703.27039	1349.37683	-33.24128	-480.27057	1235.19421	24.89167	-564.12677	1385.66418	-155.11397	-309.13315	991.45868	-165.94208	-787.47742	1009.17828	2.11667	-283.22519	826.32318	-40.17449	-732.36908	825.31818	128.32211	-410.78668	854.25714	-27.59443	-632.74664	871.76166	83.91264	-610.54785	938.67627	-164.70082	-463.77322	432.95770	-41.60774	-626.39850	451.68002	155.24063	-531.54163	106.90725	-54.04453	-741.98914	229.98279	-76.21130	
169	1.680	-443.59277	1524.68347	105.18740	-560.01605	1605.56848	-162.77341	-413.32062	1566.98181	-97.59472	-582.65393	1550.20703	50.55202	-369.79297	1326.37402	-169.89969	-699.82172	1349.87463	-24.68068	-476.65286	1235.72729	32.57703	-561.39093	1386.34119	-147.29741	-305.26788	992.45081	-158.01717	-784.23444	1009.76318	10.56332	-278.52502	828.03351	-30.35672	-728.25842	826.83795	137.02260	-406.79572	854.82056	-22.43550	-627.06006	874.13403	91.31267	-609.08167	938.71674	-156.75072	-462.68246	432.71115	-39.46126	-615.02234	455.41818	170.36383	-531.98346	107.79259	-53.60829	-732.58148	226.00130	-52.57685	
170	1.690	-439.87695	1524.22827	112.93349	-556.32471	1606.68445	-153.96982	-409.46634	1567.17664	-88.98800	-580.09033	1550.41614	58.21137	-366.78857	1327.26550	-163.29236	-696.12573	1350.57166	-16.57854	-472.51746	1236.75574	39.06205	-557.94666	1386.51404	-138.60405	-300.84827	994.35724	-149.44139	-779.15845	1009.97803	18.73112	-272.25400	829.90192	-21.70491	-723.63141	827.19116	145.20032	-402.55386	855.24536	-16.60346	-621.26135	874.90009	98.07860	-607.04565	939.20538	-148.07346	-462.33850	432.36981	-38.33937	-604.52032	459.77036	184.39897	-532.00256	107.86375	-53.56226	-722.51123	221.59244	-29.12439	
171	1.700	-436.40640	1523.94214	120.76538	-552.66608	1607.82642	-146.06863	-405.90015	1567.25830	-79.53840	-576.02191	1550.41321	66.60622	-364.24338	1327.35303	-156.91521	-692.69672	1350.83435	-8.89673	-468.30551	1237.48120	46.18773	-555.07825	1386.80493	-131.42473	-296.27493	995.56372	-141.87318	-775.48987	1010.22296	26.79859	-267.61533	831.95392	-13.11937	-719.40057	828.23553	155.36490	-399.22452	854.89648	-10.90334	-615.89014	878.22882	108.23489	-605.43652	939.81799	-140.52487	-461.82758	432.58344	-36.50863	-593.07257	462.74567	197.80992	-532.18115	108.62595	-53.04678	-711.89111	216.53247	-5.40777	
172	1.710	-433.42255	1523.73279	128.98312	-548.99744	1608.41431	-137.81990	-402.50647	1567.72437	-71.98035	-571.69135	1550.51147	74.83486	-361.64832	1327.90234	-149.37073	-689.17157	1351.06445	-0.13694	-464.78085	1237.12585	53.57253	-551.98645	1387.47937	-123.84200	-292.70248	996.22015	-134.68303	-772.24493	1010.99762	35.08709	-261.97461	833.79138	-4.26079	-714.76630	828.93506	164.05659	-394.53946	855.11078	-5.26601	-610.13550	878.38806	116.34074	-603.23517	938.51587	-131.68016	-461.60428	432.52844	-35.27078	-583.28394	466.91879	210.67171	-531.92841	108.76305	-52.73053	-700.99725	210.63477	19.01373	
173	1.720	-429.69989	1522.93750	136.82265	-545.42871	1609.02930	-129.67227	-398.96106	1568.20483	-65.66157	-569.29187	1550.45398	82.72406	-358.09933	1328.42395	-142.88185	-685.48370	1351.43445	8.14351	-460.83444	1237.44507	60.20841	-548.97186	1388.08008	-116.40800	-288.48538	996.32227	-126.08636	-768.50482	1010.96619	43.72632	-256.95645	835.37109	4.61550	-710.60986	829.40350	172.76408	-390.52499	854.91779	0.16582	-604.51111	878.38611	124.06800	-601.38367	938.69012	-124.05298	-460.69333	432.53558	-33.01582	-572.54248	469.71878	222.56775	-531.91943	108.87079	-52.66790	-689.06769	204.81264	43.31373	
174	1.730	-426.00571	1522.04492	144.77016	-541.55823	1609.42151	-120.81319	-395.26776	1567.93591	-56.64237	-564.68829	1550.11511	91.11358	-355.28204	1328.42480	-136.01028	-682.04181	1351.51953	16.69593	-456.70926	1237.16406	67.41655	-545.42059	1387.68750	-108.18647	-284.11890	996.94299	-118.82655	-763.63812	1010.60553	52.44466	-251.88367	836.74310	12.83003	-706.39313	829.20941	181.36186	-386.19382	854.77649	7.22729	-599.35211	881.06036	136.00568	-599.50854	938.68591	-115.79583	-460.19180	432.96408	-31.31621	-562.99048	472.80389	233.84897	-531.92096	109.38517	-52.15975	-676.43823	198.49684	67.27205	
